<svg width="512" height="512" viewBox="0 0 512 512" fill="none" xmlns="http://www.w3.org/2000/svg">
  <!-- Red background circle -->
  <circle cx="256" cy="256" r="240" fill="#B71C1C"/>

  <!-- Bull horns -->
  <path d="M170 120 Q120 80, 100 60 Q90 50, 110 70 Q130 90, 150 130 L170 120Z" fill="#D4A574" stroke="#8B6F47" stroke-width="4"/>
  <path d="M342 120 Q392 80, 412 60 Q422 50, 402 70 Q382 90, 362 130 L342 120Z" fill="#D4A574" stroke="#8B6F47" stroke-width="4"/>

  <!-- Bull head simplified -->
  <ellipse cx="256" cy="200" rx="110" ry="95" fill="#C62828"/>

  <!-- Bull nose -->
  <ellipse cx="256" cy="240" rx="50" ry="40" fill="#8B0000"/>
  <ellipse cx="240" cy="235" rx="8" ry="12" fill="#1a1a1a"/>
  <ellipse cx="272" cy="235" rx="8" ry="12" fill="#1a1a1a"/>

  <!-- Bull ears -->
  <ellipse cx="180" cy="180" rx="25" ry="35" fill="#C62828"/>
  <ellipse cx="332" cy="180" rx="25" ry="35" fill="#C62828"/>

  <!-- Shield/Badge with GO BULL text -->
  <path d="M156 300 L256 260 L356 300 L356 400 Q356 450, 256 480 Q156 450, 156 400 Z" fill="#3E2723" stroke="#D4A574" stroke-width="6"/>

  <!-- GO text -->
  <text x="256" y="355" font-family="Arial Black, sans-serif" font-size="48" font-weight="bold" fill="#D4A574" text-anchor="middle">GO</text>

  <!-- BULL text -->
  <text x="256" y="410" font-family="Arial Black, sans-serif" font-size="56" font-weight="bold" fill="#D4A574" text-anchor="middle">BULL</text>
</svg>
